Coordinates
version=1
nRows=15
nColumns=19
inDegrees=yes

Units are S.I. units (second, meters, Newtons, ...)
If the header above contains a line with 'inDegrees', this indicates whether rotational values are in degrees (yes) or radians (no).

endheader
time	pelvis_tilt	pelvis_list	pelvis_rotation	pelvis_tx	pelvis_ty	pelvis_tz	hip_flexion_r	hip_adduction_r	hip_rotation_r	knee_angle_r	knee_angle_r_beta	ankle_angle_r	hip_flexion_l	hip_adduction_l	hip_rotation_l	knee_angle_l	knee_angle_l_beta	ankle_angle_l
     16.50000000	      8.90423322	      6.81907472	      5.30441779	      1.93930920	      0.85314908	      1.02180643	    -20.40364265	    -11.55839715	    -14.88857097	     81.88816399	      1.42921808	    -15.79404397	     20.29375367	     12.48485299	     -2.51617569	     24.26834329	      0.42356249	     -5.47147962
     16.50666667	      8.68572330	      6.97024269	      6.20866420	      1.93813109	      0.84979861	      1.02079996	    -17.66563417	    -12.01043321	    -15.01774783	     86.69527559	      1.51311801	    -15.25965437	     19.99103235	     12.70796633	     -3.48323711	     26.93905290	      0.47017517	     -3.90695913
     16.51333333	      8.66983370	      7.27315582	      7.16086555	      1.93682224	      0.84638933	      1.01981446	    -15.18286200	    -12.75741789	    -15.38636597	     91.11231157	      1.59020983	    -14.59029862	     19.36389601	     13.06853789	     -4.03712436	     29.69056691	      0.51819815	     -1.86606792
     16.52000000	      9.02759258	      7.81594485	      8.08601149	      1.93534934	      0.84324466	      1.01889071	    -13.14042986	    -13.86930744	    -15.87984246	     95.10989317	      1.65998079	    -13.78275218	     18.13211743	     13.64989123	     -4.12852625	     32.31379675	      0.56398215	      0.55597365
     16.52666667	      8.25774163	      7.84935411	      9.04141679	      1.93361844	      0.83905705	      1.01786958	     -9.42127640	    -14.65795514	    -15.93683432	     99.01245438	      1.72809333	    -13.00128505	     18.24541501	     13.87864731	     -3.76507303	     35.18294668	      0.61405826	      3.39687941
     16.53333333	      7.97612718	      8.13638005	      9.80163415	      1.93167465	      0.83554437	      1.01704989	     -6.16206373	    -15.78191974	    -15.86342025	    102.44965319	      1.78808377	    -12.12586988	     17.60035363	     14.30646783	     -3.15954927	     37.72216678	      0.65837601	      6.29882819
     16.54000000	      7.72250196	      8.46110617	     10.44594959	      1.92953665	      0.83245355	      1.01631819	     -2.74453356	    -16.99169908	    -15.53953116	    105.46307582	      1.84067791	    -11.28389937	     16.73296922	     14.78657128	     -2.29106859	     39.93866337	      0.69706117	      9.22580647
     16.54666667	      7.39788198	      8.69041069	     10.79142863	      1.92726549	      0.82975364	      1.01582785	      1.12571544	    -18.08032116	    -14.69067372	    108.07544627	      1.88627238	    -10.56033075	     15.79498023	     15.11962874	     -1.42791579	     41.84898093	      0.73040251	     12.10554920
     16.55333333	      7.25948285	      8.96454614	     10.91222427	      1.92485000	      0.82785756	      1.01558636	      5.03118763	    -19.04710697	    -13.47741041	    110.16960660	      1.92282237	     -9.90975838	     14.42385054	     15.40944879	     -0.56210573	     43.29441464	      0.75563008	     14.72630885
     16.56000000	      7.27654373	      9.20222749	     10.77108643	      1.92246258	      0.82675549	      1.01560269	      8.98383993	    -19.75983563	    -11.92381536	    111.70582341	      1.94963441	     -9.36489063	     12.64213954	     15.54784931	      0.18997732	     44.25034927	      0.77231429	     17.06216902
     16.56666667	      7.19612240	      9.24874978	     10.53335877	      1.92014252	      0.82620981	      1.01571810	     13.17725286	    -20.02728982	    -10.23287364	    112.67098353	      1.96647963	     -8.94331220	     10.77905379	     15.44219308	      0.88748905	     44.81440109	      0.78215885	     19.07967841
     16.57333333	      7.59727001	      9.36343459	     10.02025106	      1.91801736	      0.82690102	      1.01602837	     16.80259078	    -20.03127097	     -8.40735922	    112.96467114	      1.97160545	     -8.60218017	      8.03971404	     15.24112644	      1.38228629	     44.67935694	      0.77980189	     20.61715865
     16.58000000	      7.88460048	      9.30711481	      9.40895373	      1.91613071	      0.82806038	      1.01633722	     20.46774417	    -19.61574634	     -6.60423689	    112.67965087	      1.96663091	     -8.31922933	      5.21592457	     14.84512848	      1.71593369	     44.09175725	      0.76954634	     21.68545664
     16.58666667	      8.13268925	      9.11617645	      8.75726176	      1.91449212	      0.82976788	      1.01653330	     23.93760895	    -18.86366954	     -4.95182476	    111.79706285	      1.95122684	     -8.08414421	      2.20730226	     14.30236489	      1.90807338	     43.01185135	      0.75069842	     22.23737593
     16.59333333	      7.86067739	      8.58043922	      8.83322502	      1.91324466	      0.83155000	      1.01576389	     27.28640770	    -18.04945129	     -4.30535768	    110.26570130	      1.92449954	     -7.63163507	     -0.36051352	     13.54158379	      2.75863475	     41.81996777	      0.72989613	     22.38417311
